#N canvas 5 75 1001 503 10;
#X msg 688 292 close;
#X msg 130 229 0;
#X msg 162 229 1;
#X msg 195 229 2;
#X msg 688 271 devicename /dev/ttyACM0;
#X obj 240 332 comport 0 9600;
#X msg 294 230 7;
#X msg 324 230 8;
#X msg 264 230 6;
#X obj 162 199 bng 15 250 50 0 empty empty OFF 17 7 0 10 -262144 -1
-1;
#X obj 294 198 bng 15 250 50 0 empty empty ON 17 7 0 10 -262144 -1
-1;
#X obj 635 141 key;
#X obj 635 160 sel 97 115;
#X text 702 139 keyboard control... A/S;
#X obj 172 7 sel 49;
#X obj 172 67 f;
#X floatatom 94 139 10 0 0 3 food_gathered - -;
#X floatatom 348 47 5 0 0 0 - - -;
#X msg 204 37 0;
#X obj 172 35 bng 15 250 50 0 empty empty empty 17 7 0 10 -262144 -1
-1;
#X text 239 95 variable: STOCK;
#X text 271 83 variable: RATE;
#X text 93 -37 food present;
#X text 437 -38 patapon size;
#X obj 203 151 t b b b;
#X obj 736 65 s food;
#X obj 735 88 s move;
#X obj 792 74 patapon-sound;
#X obj 203 129 sel 1;
#X obj 203 67 expr $f1 + (0.01 * $f2);
#X obj 338 -40 udpreceive 4322;
#X obj 338 -19 bytes2any;
#X obj 172 -39 udpreceive 4320;
#X floatatom 548 0 10 0 0 0 - - -;
#X floatatom 89 54 5 0 0 0 - - -;
#X floatatom 351 144 5 0 0 0 - - -;
#X obj 245 -9 change;
#X obj 245 12 sel 48;
#X obj 203 109 change;
#X obj 203 172 delay 10000;
#X obj 203 90 > 70;
#X msg 688 244 devicename /dev/ttyUSB0;
#X connect 0 0 5 0;
#X connect 1 0 5 0;
#X connect 2 0 5 0;
#X connect 3 0 5 0;
#X connect 4 0 5 0;
#X connect 6 0 5 0;
#X connect 7 0 5 0;
#X connect 8 0 5 0;
#X connect 9 0 1 0;
#X connect 9 0 2 0;
#X connect 9 0 3 0;
#X connect 10 0 8 0;
#X connect 10 0 6 0;
#X connect 10 0 7 0;
#X connect 11 0 12 0;
#X connect 12 0 10 0;
#X connect 12 1 9 0;
#X connect 14 0 19 0;
#X connect 14 0 25 0;
#X connect 15 0 29 0;
#X connect 17 0 29 1;
#X connect 18 0 15 0;
#X connect 19 0 15 0;
#X connect 24 0 39 0;
#X connect 24 1 18 0;
#X connect 24 2 9 0;
#X connect 28 0 24 0;
#X connect 29 0 15 1;
#X connect 29 0 16 0;
#X connect 29 0 35 0;
#X connect 29 0 40 0;
#X connect 30 0 31 0;
#X connect 31 0 29 1;
#X connect 31 0 33 0;
#X connect 32 0 14 0;
#X connect 32 0 34 0;
#X connect 32 0 36 0;
#X connect 36 0 37 0;
#X connect 37 0 18 0;
#X connect 38 0 28 0;
#X connect 39 0 10 0;
#X connect 40 0 26 0;
#X connect 40 0 38 0;
#X connect 41 0 5 0;
