#N canvas 4 48 1001 503 10;
#N canvas 0 0 450 300 (subpatch) 0;
#X array move 1.17106e+06 float 2;
#X coords 0 1 1.17106e+06 -1 200 140 1;
#X restore 35 31 graph;
#N canvas 0 0 450 300 (subpatch) 0;
#X array gather 3.64094e+06 float 2;
#X coords 0 1 3.64094e+06 -1 200 140 1;
#X restore 33 207 graph;
#X obj 537 208 tabplay~ move;
#X obj 268 158 soundfiler;
#X obj 579 311 *~;
#X obj 592 292 line~;
#X text 654 252 on;
#X text 649 271 off;
#X text 640 289 envelope;
#X text 640 300 generator;
#X text 593 236 amplitude controls:;
#X text 677 384 audio output;
#X obj 644 363 hip~ 5;
#X obj 537 187 bng 15 250 50 0 empty empty empty 17 7 0 10 -262144
-1 -1;
#X obj 735 310 *~;
#X obj 748 291 line~;
#X text 810 251 on;
#X text 805 270 off;
#X text 796 288 envelope;
#X text 796 299 generator;
#X text 749 235 amplitude controls:;
#X obj 736 197 bng 15 250 50 0 empty empty empty 17 7 0 10 -262144
-1 -1;
#X obj 736 218 tabplay~ gather;
#X obj 644 384 dac~;
#X obj 566 121 r move;
#X obj 771 122 r food;
#X msg 608 272 0 1000;
#X msg 764 271 0 1000;
#X msg 592 251 0.8 1000;
#X msg 748 250 0.8 1000;
#X obj 460 6 loadbang;
#X obj 537 43 delay 2000;
#X msg 268 39 read -resize patapon3.wav move;
#X msg 277 59 read -resize patapon.wav gather;
#X connect 2 0 4 0;
#X connect 2 1 13 0;
#X connect 4 0 12 0;
#X connect 5 0 4 1;
#X connect 12 0 23 0;
#X connect 12 0 23 1;
#X connect 13 0 2 0;
#X connect 14 0 12 0;
#X connect 15 0 14 1;
#X connect 21 0 22 0;
#X connect 22 0 14 0;
#X connect 22 1 21 0;
#X connect 24 0 27 0;
#X connect 24 0 28 0;
#X connect 25 0 29 0;
#X connect 25 0 26 0;
#X connect 26 0 5 0;
#X connect 27 0 15 0;
#X connect 28 0 5 0;
#X connect 29 0 15 0;
#X connect 30 0 32 0;
#X connect 30 0 31 0;
#X connect 30 0 33 0;
#X connect 31 0 13 0;
#X connect 31 0 21 0;
#X connect 32 0 3 0;
#X connect 33 0 3 0;
